PathFileType  4	(X/Y/Z) C:\Users\antoi\Documents\MyRepositories\mobilecap\ResultsAnalysis
DataRate	CameraRate	NumFrames	NumMarkers	Units	OrigDataRate	OrigDataStartFrame	OrigNumFrames
100.0	100.0	6	55	mm	100.0	265	704
Frame#	Time	r_knee			r_shank_antsup			r_ankle			r_calc			r_5meta			r_toe			L_knee			L_shank_antsup			L_ankle			L_calc			L_5meta			L_toe			r_mknee			r_mankle			L_mknee			L_mankle			r_sh2			r_sh3			r_sh4			L_sh2			L_sh3			r_thigh1			r_thigh2			r_thigh3			r_thigh4			r_thigh5			L_thigh1			L_thigh2			L_thigh3			L_thigh4			r.ASIS			r.PSIS			L.ASIS			L.PSIS			C7			R_Shoulder			L_Shoulder			R_Sternum			L_Sternum			R_humerus			R_elbow_med			R_elbow_lat			R_forearm			R_wrist_radius			R_wrist_ulna			L_humerus			L_elbow_med			L_elbow_lat			L_forearm			L_wrist_radius			L_wrist_ulna			R_HJC			L_HJC			R_HJC_reg			L_HJC_reg			
		X1	Y1	Z1	X2	Y2	Z2	X3	Y3	Z3	X4	Y4	Z4	X5	Y5	Z5	X6	Y6	Z6	X7	Y7	Z7	X8	Y8	Z8	X9	Y9	Z9	X10	Y10	Z10	X11	Y11	Z11	X12	Y12	Z12	X13	Y13	Z13	X14	Y14	Z14	X15	Y15	Z15	X16	Y16	Z16	X17	Y17	Z17	X18	Y18	Z18	X19	Y19	Z19	X20	Y20	Z20	X21	Y21	Z21	X22	Y22	Z22	X23	Y23	Z23	X24	Y24	Z24	X25	Y25	Z25	X26	Y26	Z26	X27	Y27	Z27	X28	Y28	Z28	X29	Y29	Z29	X30	Y30	Z30	X31	Y31	Z31	X32	Y32	Z32	X33	Y33	Z33	X34	Y34	Z34	X35	Y35	Z35	X36	Y36	Z36	X37	Y37	Z37	X38	Y38	Z38	X39	Y39	Z39	X40	Y40	Z40	X41	Y41	Z41	X42	Y42	Z42	X43	Y43	Z43	X44	Y44	Z44	X45	Y45	Z45	X46	Y46	Z46	X47	Y47	Z47	X48	Y48	Z48	X49	Y49	Z49	X50	Y50	Z50	X51	Y51	Z51	X52	Y52	Z52	X53	Y53	Z53	X54	Y54	Z54	X55	Y55	Z55	

265	2.64000000	-211.06037	500.68536	-442.26301	-180.22406	457.72541	-448.31969	-261.87021	96.32096	-469.93807	-317.67537	59.17001	-523.01757	-142.58650	40.77251	-425.90432	-96.04530	60.52542	-478.03616	-206.77908	497.77546	-784.92964	-191.63710	415.37852	-796.55555	-262.22293	98.46510	-752.26150	-322.62898	57.66479	-699.08343	-145.58446	41.44022	-781.80815	-101.01386	59.04554	-728.88479	-220.29633	489.19717	-566.54100	-227.55763	108.95090	-547.27244	-207.91580	485.86321	-658.38360	-232.13215	110.93840	-672.26794	-188.42535	342.73122	-459.39410	-249.22022	458.63686	-412.79359	-256.44637	342.51384	-410.26402	-277.95438	432.51791	-808.61711	-288.66021	310.04396	-803.47560	-77.18261	783.46074	-508.25802	-86.66644	672.53786	-495.66763	-114.09828	660.67963	-433.27198	-142.32841	800.70041	-417.90111	-158.50912	687.34193	-407.50354	-119.26912	820.70158	-789.73554	-133.54888	677.29456	-799.75816	-231.83816	827.36154	-787.08174	-244.98725	688.56850	-782.25620	-81.02920	969.30179	-484.76825	-269.91791	1000.29912	-562.77152	-78.76402	956.59982	-723.54748	-270.70186	999.99318	-661.09069	-258.37039	1457.26527	-618.78371	-195.28288	1431.50376	-453.54115	-209.24192	1422.95285	-778.44720	-130.12295	1383.62217	-599.66931	-130.75801	1382.06348	-637.48410	-182.50891	1196.75649	-361.17400	-225.77733	1103.20934	-400.01220	-209.93710	1108.48646	-341.91288	-156.39431	984.22090	-296.06473	-114.20746	885.35474	-287.86078	-156.46607	882.63484	-273.31124	-211.36473	1195.01733	-869.84668	-217.38558	1089.88180	-814.73011	-233.52453	1095.26295	-872.43850	-187.93581	976.81526	-936.44959	-139.22085	879.82028	-958.87448	-179.61830	868.71657	-952.38196	-154.50768	886.39239	-519.18673	-164.92941	887.85960	-709.56744	-148.47299	890.94669	-517.17179	-149.73130	890.45558	-674.99002	
266	2.65000000	-211.00962	500.72840	-442.26836	-180.16469	457.78297	-448.31001	-261.85408	96.32049	-469.91817	-317.67374	59.17874	-523.01674	-142.59652	40.81578	-425.93008	-96.02294	60.54817	-478.02565	-206.75511	497.79127	-784.95347	-191.63112	415.39385	-796.55505	-262.22259	98.45644	-752.25615	-322.62783	57.66438	-699.08900	-145.59245	41.45777	-781.81374	-101.01514	59.04896	-728.87883	-220.24079	489.16030	-566.49694	-227.54980	108.94289	-547.26884	-207.90526	485.86940	-658.38136	-232.13260	110.92597	-672.25619	-188.44573	342.71299	-459.37528	-249.22842	458.70975	-412.80452	-256.58265	342.36348	-410.37351	-277.93887	432.51705	-808.61973	-288.67948	310.06208	-803.49841	-77.17255	783.45113	-508.25470	-86.64609	672.53280	-495.67526	-114.09813	660.64821	-433.30125	-142.29883	800.69689	-417.90339	-158.49635	687.36403	-407.55101	-119.23699	820.64119	-789.70168	-133.50131	677.28889	-799.77370	-231.83060	827.32436	-787.07278	-244.95927	688.55436	-782.26264	-81.00541	969.27706	-484.79639	-269.88609	1000.32825	-562.82083	-78.74559	956.58808	-723.53730	-270.64384	999.95658	-661.11028	-258.31678	1457.26752	-618.78039	-195.26527	1431.50126	-453.58008	-209.19156	1422.91854	-778.45932	-130.09818	1383.62330	-599.67710	-130.72224	1382.06627	-637.54034	-182.50472	1196.67469	-361.23507	-225.76482	1103.25507	-400.03632	-209.93214	1108.44468	-341.96222	-156.36140	984.11689	-296.17680	-114.20969	885.34010	-287.96015	-156.48756	882.58663	-273.49931	-211.32591	1194.98478	-869.80143	-217.36359	1089.86927	-814.71211	-233.50675	1095.25234	-872.42356	-187.88599	976.76205	-936.34170	-139.18615	879.78268	-958.82030	-179.59446	868.68594	-952.30963	-154.49112	886.38533	-519.20043	-164.89807	887.84072	-709.58204	-148.50717	891.03483	-517.16357	-149.72363	890.43808	-674.95606	
267	2.66000000	-210.98563	500.74196	-442.24595	-180.13207	457.77650	-448.32324	-261.84269	96.31561	-469.90085	-317.66346	59.17808	-523.02341	-142.58802	40.83948	-425.94340	-96.01799	60.55505	-478.01925	-206.73009	497.79777	-784.96979	-191.62698	415.40247	-796.56724	-262.23087	98.40119	-752.23597	-322.64062	57.68021	-699.12030	-145.59603	41.46579	-781.81889	-101.01153	59.05598	-728.88816	-220.23137	489.15578	-566.49899	-227.52441	108.92207	-547.25818	-207.89954	485.87027	-658.38217	-232.13224	110.93048	-672.25629	-188.47133	342.71601	-459.38001	-249.22952	458.77237	-412.88894	-256.64973	342.35538	-410.41755	-277.91546	432.51631	-808.62871	-288.67636	310.09429	-803.59405	-77.14878	783.45710	-508.27060	-86.61865	672.54147	-495.68692	-114.06949	660.68671	-433.34459	-142.23059	800.75108	-417.91712	-158.43836	687.40719	-407.60641	-119.24159	820.69215	-789.73551	-133.42688	677.28048	-799.80341	-231.79063	827.29742	-787.13371	-244.92933	688.55745	-782.27030	-80.99299	969.25837	-484.85392	-269.79866	1000.40059	-562.86526	-78.73607	956.57916	-723.55402	-270.71124	999.83245	-661.10898	-258.26465	1457.27103	-618.80761	-195.24961	1431.50916	-453.58774	-209.14658	1422.89485	-778.49274	-130.06195	1383.63031	-599.68759	-130.69293	1382.06600	-637.57305	-182.50391	1196.65055	-361.23479	-225.71282	1103.26721	-400.06121	-209.93528	1108.41062	-342.03373	-156.36439	984.08043	-296.25799	-114.20777	885.29918	-288.08045	-156.53807	882.51415	-273.63727	-211.30145	1194.95672	-869.77296	-217.34770	1089.85976	-814.69670	-233.48993	1095.23487	-872.41338	-187.84591	976.72129	-936.23715	-139.16103	879.75977	-958.78990	-179.53660	868.63900	-952.10453	-154.45852	886.39105	-519.20754	-164.90089	887.79367	-709.58759	-148.46126	891.30861	-516.96208	-149.92670	890.39620	-674.72354	
268	2.67000000	-210.97804	500.74727	-442.23310	-180.15007	457.73314	-448.32820	-261.84732	96.30635	-469.90692	-317.65874	59.16889	-523.02815	-142.58781	40.81523	-425.93647	-96.02186	60.55261	-478.02391	-206.71399	497.79049	-784.97055	-191.61230	415.38890	-796.58611	-262.23006	98.36064	-752.22570	-322.64733	57.69379	-699.13252	-145.59806	41.46832	-781.81379	-101.00717	59.05662	-728.89297	-220.24822	489.16784	-566.52565	-227.50045	108.90760	-547.25078	-207.89629	485.87471	-658.38218	-232.13224	110.93854	-672.26242	-188.44464	342.75127	-459.41144	-249.18805	458.73272	-413.00067	-256.58641	342.47617	-410.35338	-277.89274	432.50928	-808.63797	-288.64693	310.09816	-803.62749	-77.10711	783.45953	-508.28904	-86.59049	672.55683	-495.70396	-114.01249	660.77126	-433.37022	-142.17268	800.85209	-417.93594	-158.38532	687.45647	-407.63544	-119.24721	820.78667	-789.81327	-133.36287	677.26016	-799.85744	-231.73482	827.29683	-787.18012	-244.90265	688.57632	-782.27456	-80.96796	969.25161	-484.89152	-269.71352	1000.44627	-562.88114	-78.70247	956.60818	-723.62094	-270.73536	999.78301	-661.07027	-258.21523	1457.27472	-618.85260	-195.23387	1431.50754	-453.58630	-209.10955	1422.88583	-778.52498	-130.02124	1383.62004	-599.67760	-130.65910	1382.05028	-637.56409	-182.47458	1196.67733	-361.24630	-225.66184	1103.21307	-400.16736	-209.93321	1108.39401	-342.08285	-156.38362	984.11759	-296.30698	-114.20421	885.21667	-288.18832	-156.58764	882.46196	-273.66618	-211.28688	1194.92760	-869.77400	-217.33659	1089.85826	-814.68583	-233.46929	1095.21935	-872.42322	-187.81333	976.69457	-936.20140	-139.20214	879.79794	-958.90805	-179.50067	868.60009	-951.89173	-154.40039	886.39614	-519.23400	-164.88806	887.80028	-709.61155	-148.39183	891.45118	-516.85878	-150.03360	890.38556	-674.63601	
269	2.68000000	-210.94744	500.78776	-442.21732	-180.17350	457.71343	-448.34122	-261.85955	96.31288	-469.93266	-317.66485	59.16703	-523.02405	-142.58630	40.78109	-425.91518	-96.04503	60.52266	-478.03119	-206.70437	497.78602	-784.97561	-191.59120	415.36286	-796.60167	-262.20490	98.38085	-752.23995	-322.63709	57.69200	-699.11191	-145.59545	41.46108	-781.80369	-101.00296	59.05246	-728.88642	-220.23498	489.15811	-566.52131	-227.51351	108.93327	-547.25895	-207.89117	485.88254	-658.38055	-232.13346	110.93584	-672.26312	-188.39592	342.77618	-459.43021	-249.07963	458.71270	-413.04195	-256.47991	342.40924	-410.34595	-277.87768	432.50149	-808.64398	-288.60228	310.07774	-803.61431	-77.06348	783.44780	-508.29422	-86.56765	672.55750	-495.71820	-113.98631	660.76837	-433.36914	-142.12177	800.92771	-417.94232	-158.35737	687.52242	-407.66866	-119.20211	820.79675	-789.85407	-133.32718	677.23588	-799.92702	-231.70660	827.30916	-787.16288	-244.87548	688.58643	-782.28734	-80.92962	969.27156	-484.90075	-269.70772	1000.42795	-562.88526	-78.63184	956.65662	-723.67726	-270.59830	999.84202	-661.01577	-258.17594	1457.27519	-618.87792	-195.20450	1431.46811	-453.64018	-209.07819	1422.86746	-778.53360	-129.98292	1383.59746	-599.64981	-130.62341	1382.01883	-637.54404	-182.42419	1196.68054	-361.35006	-225.64684	1103.16232	-400.33019	-209.91100	1108.38534	-342.08477	-156.39336	984.16871	-296.37091	-114.20990	885.15107	-288.25037	-156.59217	882.46079	-273.65289	-211.26620	1194.89555	-869.78695	-217.32563	1089.85927	-814.67679	-233.44313	1095.20154	-872.41246	-187.77801	976.66361	-936.20018	-139.29229	879.88595	-959.14384	-179.47544	868.57175	-951.79404	-154.33248	886.39999	-519.26402	-164.81686	887.85663	-709.64136	-148.40428	891.35822	-517.02399	-149.83629	890.41615	-674.83408	
270	2.69000000	-210.91982	500.81543	-442.22685	-180.14058	457.72248	-448.38290	-261.85935	96.33685	-469.96041	-317.66964	59.17911	-523.01781	-142.57884	40.77095	-425.88959	-96.07218	60.48417	-478.02942	-206.68860	497.79585	-784.99863	-191.57528	415.34715	-796.60661	-262.18619	98.41873	-752.25650	-322.62878	57.69001	-699.10738	-145.58500	41.44401	-781.80166	-101.00459	59.05368	-728.87868	-220.17342	489.12136	-566.47894	-227.55273	108.98611	-547.27496	-207.88547	485.88205	-658.38069	-232.13214	110.93019	-672.25887	-188.38030	342.76939	-459.42267	-248.96949	458.76469	-413.01835	-256.37150	342.17146	-410.49008	-277.86434	432.49786	-808.65016	-288.56752	310.05801	-803.61592	-77.01427	783.44098	-508.31513	-86.54366	672.55285	-495.73524	-114.01437	660.67912	-433.37585	-142.05978	800.92250	-417.93366	-158.32876	687.58118	-407.69985	-119.13663	820.71288	-789.82561	-133.30753	677.22236	-799.96598	-231.69920	827.29857	-787.21841	-244.84122	688.57839	-782.31404	-80.88755	969.31741	-484.91728	-269.75036	1000.36770	-562.88246	-78.56398	956.64993	-723.67677	-270.46801	999.91033	-661.01597	-258.14473	1457.27387	-618.87943	-195.15943	1431.42118	-453.70040	-209.04971	1422.84368	-778.54060	-129.94652	1383.58547	-599.62770	-130.59503	1381.98965	-637.54147	-182.40882	1196.62953	-361.46990	-225.66098	1103.16416	-400.43956	-209.88725	1108.37763	-342.07879	-156.41998	984.15004	-296.48215	-114.22509	885.14641	-288.29137	-156.56367	882.48247	-273.67197	-211.23503	1194.87318	-869.79464	-217.30978	1089.85732	-814.66412	-233.41482	1095.17496	-872.35926	-187.74179	976.62284	-936.15831	-139.32787	879.92790	-959.26075	-179.45096	868.56051	-951.77741	-154.28722	886.41030	-519.26802	-164.74462	887.87315	-709.64679	-148.41165	891.17924	-517.25156	-149.56576	890.44373	-675.05605	
